<svg width="41" height="40" viewBox="0 0 41 40" fill="none" xmlns="http://www.w3.org/2000/svg">
<g clip-path="url(#clip0)">
<path d="M20.8711 2.42188C9.88594 2.42188 0.871094 11.3586 0.871094 22.3438V31.7188C0.871094 33.6573 2.44813 35.2344 4.38672 35.2344H5.55859V23.5156H4.38672C3.97391 23.5156 3.5832 23.6002 3.21484 23.7315V22.3438C3.21484 12.6506 11.178 4.76562 20.8711 4.76562C30.5642 4.76562 38.5273 12.6506 38.5273 22.3438V23.7315C38.159 23.6002 37.7683 23.5156 37.3555 23.5156H36.1836V35.2344H37.3555C39.2941 35.2344 40.8711 33.6573 40.8711 31.7188V22.3438C40.8711 11.3586 31.8563 2.42188 20.8711 2.42188Z" fill="white"/>
<path d="M11.418 21.1719H10.2461C8.95164 21.1719 7.90234 22.2212 7.90234 23.5156V35.2344C7.90234 36.5288 8.95164 37.5781 10.2461 37.5781H11.418C12.0652 37.5781 12.5898 37.0534 12.5898 36.4062V22.3438C12.5898 21.6966 12.0652 21.1719 11.418 21.1719Z" fill="white"/>
<path d="M31.4961 21.1719H30.3242C29.677 21.1719 29.1523 21.6966 29.1523 22.3438V36.4062C29.1523 37.0534 29.677 37.5781 30.3242 37.5781H31.4961C32.7905 37.5781 33.8398 36.5288 33.8398 35.2344V23.5156C33.8398 22.2212 32.7905 21.1719 31.4961 21.1719Z" fill="white"/>
</g>
<defs>
<clipPath id="clip0">
<rect width="40" height="40" fill="white" transform="translate(0.871094)"/>
</clipPath>
</defs>
</svg>
