<svg width="15" height="15" viewBox="0 0 15 15" fill="none" xmlns="http://www.w3.org/2000/svg">
<g clip-path="url(#clip0)">
<path d="M10.906 0.0373535H4.45645C2.36575 0.0373535 0.664825 1.79094 0.664825 3.94636V10.5956C0.664825 12.751 2.36575 14.5046 4.45645 14.5046H10.906C12.9967 14.5046 14.6976 12.751 14.6976 10.5956V3.94636C14.6976 1.79094 12.9967 0.0373535 10.906 0.0373535ZM13.5639 10.5956C13.5639 12.1065 12.3716 13.3358 10.906 13.3358H4.45645C2.99087 13.3358 1.79852 12.1066 1.79852 10.5956V3.94636C1.79852 2.43541 2.99084 1.20615 4.45645 1.20615H10.906C12.3716 1.20615 13.5639 2.43538 13.5639 3.94636V10.5956Z" fill="white"/>
<path d="M10.8218 6.76637C10.722 6.07277 10.4151 5.44412 9.93418 4.9483C9.45326 4.45252 8.84349 4.13605 8.17074 4.03322C7.86443 3.9864 7.55387 3.9864 7.24759 4.03322C6.41614 4.16035 5.68252 4.61364 5.18181 5.30962C4.68109 6.0056 4.4732 6.86098 4.59651 7.7181C4.71982 8.57526 5.1595 9.3316 5.83458 9.84784C6.38262 10.2669 7.03246 10.487 7.7025 10.487C7.85782 10.487 8.01426 10.4752 8.17071 10.4512C9.00215 10.3241 9.73578 9.87081 10.2365 9.17483C10.7372 8.47888 10.9451 7.62353 10.8218 6.76637ZM8.00442 9.29506C7.47258 9.37649 6.94182 9.23931 6.50996 8.90908C6.0781 8.57885 5.79684 8.09499 5.71798 7.54667C5.6391 6.99836 5.77206 6.45117 6.09237 6.00594C6.41272 5.5607 6.88202 5.27074 7.4139 5.18942C7.51185 5.17444 7.61049 5.16695 7.70913 5.16695C7.80777 5.16695 7.90644 5.17444 8.0044 5.18944C8.88778 5.32448 9.56933 6.0271 9.70034 6.93786C9.86314 8.06975 9.10238 9.12722 8.00442 9.29506Z" fill="white"/>
<path d="M11.6293 3.20066C11.5237 3.09184 11.3776 3.02948 11.2285 3.02948C11.0793 3.02948 10.9332 3.09181 10.8276 3.20066C10.7221 3.3095 10.6616 3.45988 10.6616 3.61391C10.6616 3.76793 10.7221 3.91831 10.8276 4.02715C10.9332 4.13597 11.0793 4.19833 11.2285 4.19833C11.3776 4.19833 11.5237 4.136 11.6293 4.02715C11.7349 3.91831 11.7953 3.76768 11.7953 3.61391C11.7953 3.46011 11.7349 3.30947 11.6293 3.20066Z" fill="white"/>
</g>
<defs>
<clipPath id="clip0">
<rect width="14.0328" height="14.4672" fill="white" transform="translate(0.664825 0.0373535)"/>
</clipPath>
</defs>
</svg>
