<svg width="77" height="78" viewBox="0 0 77 78" fill="none" xmlns="http://www.w3.org/2000/svg">
<g opacity="0.2" clip-path="url(#clip0)">
<mask id="mask0" mask-type="alpha" maskUnits="userSpaceOnUse" x="10" y="0" width="58" height="78">
<path d="M65.88 29.4728H61.1144V23.1187C61.1144 10.8557 51.138 0.879196 38.8749 0.879196C26.6118 0.879196 16.6354 10.8557 16.6354 23.1187V29.4728H11.8698C10.9918 29.4728 10.2812 30.1834 10.2812 31.0614V70.7749C10.2812 74.2792 13.1309 77.1289 16.6354 77.1289H61.1145C64.6189 77.1289 67.4686 74.2792 67.4686 70.7747V31.0614C67.4686 30.1834 66.758 29.4728 65.88 29.4728ZM43.6313 62.6568C43.6809 63.1051 43.5367 63.555 43.2357 63.8917C42.9348 64.2283 42.5035 64.4207 42.0521 64.4207H35.6979C35.2465 64.4207 34.8152 64.2283 34.5142 63.8917C34.2132 63.5551 34.0689 63.1052 34.1187 62.6568L35.1208 53.6454C33.4935 52.4617 32.5209 50.5893 32.5209 48.5353C32.5209 45.0309 35.3705 42.1811 38.875 42.1811C42.3796 42.1811 45.2292 45.0308 45.2292 48.5353C45.2292 50.5893 44.2566 52.4617 42.6293 53.6454L43.6313 62.6568ZM51.5831 29.4728H26.1667V23.1187C26.1667 16.1114 31.8677 10.4104 38.8749 10.4104C45.8821 10.4104 51.5831 16.1114 51.5831 23.1187V29.4728Z" fill="black"/>
</mask>
<g mask="url(#mask0)">
<path d="M51.0923 -27.9774L-38.8287 61.9435" stroke="white" stroke-width="1.19"/>
<path d="M86.1431 3.94698L-3.7779 93.8679" stroke="white" stroke-width="1.19"/>
<path d="M68.6177 -12.0152L-21.3033 77.9058" stroke="white" stroke-width="1.19"/>
<path d="M103.668 19.9092L13.7475 109.83" stroke="white" stroke-width="1.19"/>
<path d="M59.855 -19.819L-30.066 70.102" stroke="white" stroke-width="1.19"/>
<path d="M94.9058 12.1054L4.9848 102.026" stroke="white" stroke-width="1.19"/>
<path d="M77.3804 -3.85677L-12.5406 86.0642" stroke="white" stroke-width="1.19"/>
<path d="M112.431 28.0676L22.5102 117.989" stroke="white" stroke-width="1.19"/>
<path d="M54.0132 -25.1397L-35.9078 64.7813" stroke="white" stroke-width="1.19"/>
<path d="M89.064 6.78469L-0.856999 96.7057" stroke="white" stroke-width="1.19"/>
<path d="M71.5386 -9.17751L-18.3824 80.7435" stroke="white" stroke-width="1.19"/>
<path d="M106.589 22.7469L16.6684 112.668" stroke="white" stroke-width="1.19"/>
<path d="M62.7759 -16.9813L-27.1451 72.9397" stroke="white" stroke-width="1.19"/>
<path d="M97.8267 14.9431L7.9057 104.864" stroke="white" stroke-width="1.19"/>
<path d="M80.3013 -1.01907L-9.61969 88.9019" stroke="white" stroke-width="1.19"/>
<path d="M115.352 30.9053L25.4311 120.826" stroke="white" stroke-width="1.19"/>
<path d="M56.9341 -22.6567L-32.9869 67.2643" stroke="white" stroke-width="1.19"/>
<path d="M91.9849 9.26771L2.0639 99.1887" stroke="white" stroke-width="1.19"/>
<path d="M74.4595 -6.69448L-15.4615 83.2265" stroke="white" stroke-width="1.19"/>
<path d="M109.51 25.2299L19.5893 115.151" stroke="white" stroke-width="1.19"/>
<path d="M65.6968 -14.4982L-24.2242 75.4227" stroke="white" stroke-width="1.19"/>
<path d="M100.748 17.4262L10.8266 107.347" stroke="white" stroke-width="1.19"/>
<path d="M83.2222 1.46396L-6.6988 91.3849" stroke="white" stroke-width="1.19"/>
<path d="M118.273 33.3884L28.352 123.309" stroke="white" stroke-width="1.19"/>
</g>
</g>
<defs>
<clipPath id="clip0">
<rect width="76.2497" height="76.2497" fill="white" transform="translate(0.75 0.879181)"/>
</clipPath>
</defs>
</svg>
