<svg width="138" height="72" viewBox="0 0 138 72" fill="none" xmlns="http://www.w3.org/2000/svg">
<path d="M21.026 32.8909V17.4924H23.784V32.8909H21.026ZM15.74 23.8127C15.74 22.4644 16.1384 21.3842 16.9351 20.5721C17.7472 19.7447 18.881 19.331 20.3366 19.331H20.5664V21.8591C19.1874 21.8591 18.4979 22.5103 18.4979 23.8127V26.5706C18.4979 27.873 19.1874 28.5242 20.5664 28.5242V31.0523H20.3366C18.881 31.0523 17.7472 30.6463 16.9351 29.8342C16.1384 29.0068 15.74 27.919 15.74 26.5706V23.8127ZM24.4735 19.331C25.9291 19.331 27.0552 19.7447 27.852 20.5721C28.664 21.3842 29.07 22.4644 29.07 23.8127V26.5706C29.07 27.919 28.664 29.0068 27.852 29.8342C27.0552 30.6463 25.9291 31.0523 24.4735 31.0523H24.2436V28.5242C25.6226 28.5242 26.3121 27.873 26.3121 26.5706V23.8127C26.3121 22.5103 25.6226 21.8591 24.2436 21.8591V19.331H24.4735ZM33.797 27.2601L31.1539 23.399C30.8169 22.9087 30.6483 22.2422 30.6483 21.3995V17.4924H33.4063V21.7442C33.4063 21.8974 33.4446 22.0277 33.5212 22.1349L35.4058 24.8699L33.797 27.2601ZM38.0028 17.4924H40.7608V21.3995C40.7608 21.9051 40.7225 22.2958 40.6459 22.5716C40.5846 22.8321 40.4543 23.1079 40.2552 23.399L35.1759 30.8225C34.6856 31.5426 34.1341 32.0712 33.5212 32.4083C32.9236 32.73 32.1575 32.8909 31.2229 32.8909H30.6483V30.3628H31.3378C31.966 30.3628 32.464 30.087 32.8317 29.5354L37.842 22.2039C37.9492 22.0507 38.0028 21.8974 38.0028 21.7442V17.4924ZM41.5625 20.0205V17.4924H47.4231C46.1667 18.0593 45.37 18.902 45.0329 20.0205H41.5625ZM45.2397 32.8909V21.8591C45.2397 20.4189 45.6381 19.331 46.4348 18.5956C47.2469 17.8601 48.3424 17.4924 49.7214 17.4924H51.6749V20.0205H49.7214C49.1545 20.0205 48.7255 20.1737 48.4344 20.4802C48.1432 20.7866 47.9977 21.3229 47.9977 22.089V32.8909H45.2397ZM58.1146 23.9276C59.5702 23.9276 60.6964 24.3413 61.4931 25.1687C62.3052 25.9807 62.7112 27.0609 62.7112 28.4093C62.7112 29.7576 62.3052 30.8454 61.4931 31.6728C60.6964 32.4849 59.5702 32.8909 58.1146 32.8909H52.5987V17.4924H62.0217V20.0205H55.3567V30.3628H57.8848C59.2638 30.3628 59.9533 29.7116 59.9533 28.4093C59.9533 27.1069 59.3404 26.4557 58.1146 26.4557H55.8163V23.9276H58.1146ZM70.0325 17.4924C71.4881 17.4924 72.6142 17.9061 73.411 18.7335C74.223 19.5455 74.6291 20.6257 74.6291 21.9741V28.4093C74.6291 29.7576 74.223 30.8454 73.411 31.6728C72.6142 32.4849 71.4881 32.8909 70.0325 32.8909H69.1132C67.6576 32.8909 66.5238 32.4849 65.7117 31.6728C64.915 30.8454 64.5166 29.7576 64.5166 28.4093V21.9741C64.5166 20.6257 64.915 19.5455 65.7117 18.7335C66.5238 17.9061 67.6576 17.4924 69.1132 17.4924H70.0325ZM71.8711 28.4093V21.9741C71.8711 20.6717 71.1816 20.0205 69.8027 20.0205H69.343C67.964 20.0205 67.2746 20.6717 67.2746 21.9741V28.4093C67.2746 29.7116 67.964 30.3628 69.343 30.3628H69.8027C71.1816 30.3628 71.8711 29.7116 71.8711 28.4093ZM81.7538 17.4924H86.5802V32.8909H83.8222V20.0205H81.2941C80.911 20.0205 80.6199 20.1048 80.4207 20.2733C80.2216 20.4419 80.099 20.7789 80.053 21.2846L79.3635 29.6733C79.2563 30.8837 78.9192 31.7264 78.3523 32.2014C77.8007 32.6611 76.9427 32.8909 75.7782 32.8909H75.5484V30.3628H76.008C76.3604 30.3628 76.5443 30.2096 76.5596 29.9031L77.387 20.9628C77.5096 19.6758 77.9309 18.7794 78.6511 18.2738C79.3712 17.7529 80.4054 17.4924 81.7538 17.4924ZM93.9131 23.9276C95.3687 23.9276 96.4949 24.3413 97.2916 25.1687C98.1037 25.9807 98.5097 27.0609 98.5097 28.4093C98.5097 29.7576 98.1037 30.8454 97.2916 31.6728C96.4949 32.4849 95.3687 32.8909 93.9131 32.8909H88.3972V17.4924H91.1552V30.3628H93.6833C95.0623 30.3628 95.7517 29.7116 95.7517 28.4093C95.7517 27.1069 95.1389 26.4557 93.9131 26.4557H91.6148V23.9276H93.9131ZM105.405 23.9276C106.86 23.9276 107.986 24.3413 108.783 25.1687C109.595 25.9807 110.001 27.0609 110.001 28.4093V32.8909H107.243V28.4093C107.243 27.1069 106.554 26.4557 105.175 26.4557H104.485C103.03 26.4557 101.896 26.0497 101.084 25.2376C100.287 24.4102 99.8887 23.3224 99.8887 21.9741V17.4924H102.647V21.9741C102.647 23.2764 103.336 23.9276 104.715 23.9276H105.405ZM107.243 17.4924H110.001V26.111C109.465 24.9159 108.546 24.1191 107.243 23.7208V17.4924ZM99.8887 24.2723C100.425 25.4674 101.344 26.2642 102.647 26.6626V32.8909H99.8887V24.2723ZM117.322 23.9276C118.778 23.9276 119.904 24.3413 120.701 25.1687C121.513 25.9807 121.919 27.0609 121.919 28.4093C121.919 29.7576 121.513 30.8454 120.701 31.6728C119.904 32.4849 118.778 32.8909 117.322 32.8909H111.807V17.4924H114.564V30.3628H117.093C118.472 30.3628 119.161 29.7116 119.161 28.4093C119.161 27.1069 118.548 26.4557 117.322 26.4557H115.024V23.9276H117.322ZM125.826 32.8909H123.068V17.4924H125.826V32.8909ZM134.317 13.2406H136.386C136.386 14.3131 136.102 15.1405 135.535 15.7227C134.968 16.2896 134.172 16.5731 133.145 16.5731H132.272C131.245 16.5731 130.448 16.2896 129.881 15.7227C129.315 15.1405 129.031 14.3131 129.031 13.2406H131.1C131.1 13.7155 131.199 14.0833 131.398 14.3437C131.598 14.6042 131.996 14.7345 132.593 14.7345H132.823C133.421 14.7345 133.819 14.6042 134.018 14.3437C134.218 14.0833 134.317 13.7155 134.317 13.2406ZM130.41 32.8909H127.652V31.8567C127.652 30.9067 128.127 29.7116 129.077 28.2714L134.478 20.1354C134.83 19.5992 135.007 18.9863 135.007 18.2968V17.4924H137.765V18.5266C137.765 19.4766 137.29 20.6717 136.34 22.112L130.939 30.2479C130.586 30.7841 130.41 31.397 130.41 32.0865V32.8909ZM127.652 29.9031V17.4924H130.41V25.4215L128.686 28.0185C128.242 28.7234 127.897 29.3516 127.652 29.9031ZM137.765 32.8909H135.007V24.9618L136.73 22.3648C137.129 21.7672 137.473 21.139 137.765 20.4802V32.8909ZM26.0823 38.4924V53.8909H23.3243V41.0205H18.7278V53.8909H15.9698V38.4924H26.0823ZM32.7141 41.0205C31.3351 41.0205 30.6456 41.6717 30.6456 42.9741V43.4337C30.6456 44.7361 31.3351 45.3873 32.7141 45.3873H35.2422V47.9154H32.4843C31.0287 47.9154 29.8949 47.5093 29.0828 46.6973C28.2861 45.8699 27.8877 44.782 27.8877 43.4337V42.9741C27.8877 41.6257 28.2861 40.5455 29.0828 39.7335C29.8949 38.9061 31.0287 38.4924 32.4843 38.4924H38.0001V41.0205H32.7141ZM30.6456 49.4093C30.6456 50.7116 31.3351 51.3628 32.7141 51.3628H38.0001V53.8909H32.4843C31.0287 53.8909 29.8949 53.4849 29.0828 52.6728C28.2861 51.8454 27.8877 50.7576 27.8877 49.4093V45.732C28.424 46.9271 29.3433 47.7238 30.6456 48.1222V49.4093ZM38.5774 41.0205V38.4924H44.438C43.1816 39.0593 42.3849 39.902 42.0478 41.0205H38.5774ZM42.2547 53.8909V42.8591C42.2547 41.4189 42.653 40.331 43.4498 39.5956C44.2618 38.8601 45.3573 38.4924 46.7363 38.4924H48.6899V41.0205H46.7363C46.1694 41.0205 45.7404 41.1737 45.4493 41.4802C45.1582 41.7866 45.0126 42.3229 45.0126 43.089V53.8909H42.2547ZM54.9051 38.4924C56.3607 38.4924 57.4868 38.9061 58.2836 39.7335C59.0956 40.5455 59.5017 41.6257 59.5017 42.9741C59.5017 44.3224 59.0956 45.4102 58.2836 46.2376C57.4868 47.0497 56.3607 47.4557 54.9051 47.4557H54.2156C52.8367 47.4557 52.1472 48.1069 52.1472 49.4093V53.8909H49.3892V49.4093C49.3892 48.0609 49.7876 46.9807 50.5843 46.1687C51.3964 45.3413 52.5302 44.9276 53.9858 44.9276H54.6753C56.0542 44.9276 56.7437 44.2764 56.7437 42.9741C56.7437 41.6717 56.0542 41.0205 54.6753 41.0205H54.2156C52.8367 41.0205 52.1472 41.6717 52.1472 42.9741V44.7208C50.8448 45.1191 49.9255 45.9159 49.3892 47.111V42.9741C49.3892 41.6257 49.7876 40.5455 50.5843 39.7335C51.3964 38.9061 52.5302 38.4924 53.9858 38.4924H54.9051ZM66.1721 38.4924C67.6277 38.4924 68.7538 38.9061 69.5506 39.7335C70.3626 40.5455 70.7687 41.6257 70.7687 42.9741V49.4093C70.7687 50.7576 70.3626 51.8454 69.5506 52.6728C68.7538 53.4849 67.6277 53.8909 66.1721 53.8909H65.2528C63.7972 53.8909 62.6634 53.4849 61.8513 52.6728C61.0546 51.8454 60.6562 50.7576 60.6562 49.4093V42.9741C60.6562 41.6257 61.0546 40.5455 61.8513 39.7335C62.6634 38.9061 63.7972 38.4924 65.2528 38.4924H66.1721ZM68.0107 49.4093V42.9741C68.0107 41.6717 67.3212 41.0205 65.9423 41.0205H65.4826C64.1036 41.0205 63.4142 41.6717 63.4142 42.9741V49.4093C63.4142 50.7116 64.1036 51.3628 65.4826 51.3628H65.9423C67.3212 51.3628 68.0107 50.7116 68.0107 49.4093ZM81.7672 43.5486C81.5374 44.7591 81.0547 45.6401 80.3193 46.1917C81.0547 46.7432 81.5374 47.6243 81.7672 48.8347L82.1349 50.9031C82.1962 51.2096 82.3801 51.3628 82.6865 51.3628H83.1462V53.8909H82.9164C81.8591 53.8909 81.0394 53.6534 80.4572 53.1784C79.8903 52.7035 79.5149 51.8684 79.331 50.6733L79.1012 49.1564C78.9173 48.0226 78.2738 47.4557 77.1706 47.4557C75.9449 47.4557 75.332 48.1069 75.332 49.4093V53.8909H72.5741V49.4093C72.5741 48.0609 72.9724 46.9807 73.7692 46.1687C74.5812 45.3413 75.7151 44.9276 77.1706 44.9276C78.2738 44.9276 78.9173 44.3607 79.1012 43.2269L79.331 41.71C79.5149 40.5149 79.8903 39.6798 80.4572 39.2049C81.0394 38.7299 81.8591 38.4924 82.9164 38.4924H83.1462V41.0205H82.6865C82.3801 41.0205 82.1962 41.1737 82.1349 41.4802L81.7672 43.5486ZM75.332 44.7208C74.0297 45.1191 73.1103 45.9159 72.5741 47.111V38.4924H75.332V44.7208ZM90.0078 44.9276C91.4634 44.9276 92.5896 45.3413 93.3863 46.1687C94.1984 46.9807 94.6044 48.0609 94.6044 49.4093C94.6044 50.7576 94.1984 51.8454 93.3863 52.6728C92.5896 53.4849 91.4634 53.8909 90.0078 53.8909H84.4919V38.4924H90.0078C91.4634 38.4924 92.5896 38.9061 93.3863 39.7335C94.1984 40.5455 94.6044 41.6257 94.6044 42.9741C94.6044 44.1232 94.3133 45.0808 93.731 45.8469C93.0875 45.1727 92.2295 44.7437 91.157 44.5599C91.6166 44.2228 91.8465 43.6942 91.8465 42.9741C91.8465 41.6717 91.157 41.0205 89.778 41.0205H87.2499V44.9276H90.0078ZM89.778 51.3628C91.157 51.3628 91.8465 50.7116 91.8465 49.4093C91.8465 48.1069 91.2336 47.4557 90.0078 47.4557H87.2499V51.3628H89.778ZM101.236 41.0205C99.8572 41.0205 99.1677 41.6717 99.1677 42.9741V43.4337C99.1677 44.7361 99.8572 45.3873 101.236 45.3873H103.764V47.9154H101.006C99.5508 47.9154 98.417 47.5093 97.6049 46.6973C96.8082 45.8699 96.4098 44.782 96.4098 43.4337V42.9741C96.4098 41.6257 96.8082 40.5455 97.6049 39.7335C98.417 38.9061 99.5508 38.4924 101.006 38.4924H106.522V41.0205H101.236ZM99.1677 49.4093C99.1677 50.7116 99.8572 51.3628 101.236 51.3628H106.522V53.8909H101.006C99.5508 53.8909 98.417 53.4849 97.6049 52.6728C96.8082 51.8454 96.4098 50.7576 96.4098 49.4093V45.732C96.9461 46.9271 97.8654 47.7238 99.1677 48.1222V49.4093ZM110.435 49.4093C110.435 50.7116 111.124 51.3628 112.503 51.3628H117.789V53.8909H112.273C110.818 53.8909 109.684 53.4849 108.872 52.6728C108.075 51.8454 107.677 50.7576 107.677 49.4093V42.9741C107.677 41.6257 108.075 40.5455 108.872 39.7335C109.684 38.9061 110.818 38.4924 112.273 38.4924H113.193C114.648 38.4924 115.774 38.9061 116.571 39.7335C117.383 40.5455 117.789 41.6257 117.789 42.9741H115.031C115.031 41.6717 114.342 41.0205 112.963 41.0205H112.503C111.124 41.0205 110.435 41.6717 110.435 42.9741V49.4093ZM118.367 41.0205V38.4924H124.227C122.971 39.0593 122.174 39.902 121.837 41.0205H118.367ZM122.044 53.8909V42.8591C122.044 41.4189 122.442 40.331 123.239 39.5956C124.051 38.8601 125.146 38.4924 126.525 38.4924H128.479V41.0205H126.525C125.959 41.0205 125.53 41.1737 125.238 41.4802C124.947 41.7866 124.802 42.3229 124.802 43.089V53.8909H122.044Z" fill="white"/>
<path fill-rule="evenodd" clip-rule="evenodd" d="M0.300049 8.34636C0.300049 3.73679 4.03684 0 8.64641 0L78.2252 1.90735e-06C82.8347 2.02656e-06 86.5715 3.7368 86.5715 8.34637V32.4861C86.5715 33.245 85.9563 33.8602 85.1974 33.8602C84.4385 33.8602 83.8232 33.245 83.8232 32.4861V8.34637C83.8232 5.25464 81.3169 2.7483 78.2252 2.7483L8.64641 2.74829C5.55468 2.74829 3.04834 5.25463 3.04834 8.34636V63.6536C3.04834 66.7454 5.55469 69.2517 8.64642 69.2517H55.0396C58.1313 69.2517 60.6376 66.7454 60.6376 63.6536V44.6685C60.6376 43.9096 61.2528 43.2943 62.0118 43.2943C62.7707 43.2943 63.3859 43.9096 63.3859 44.6685V63.6536C63.3859 68.2632 59.6491 72 55.0396 72H8.64642C4.03685 72 0.300049 68.2632 0.300049 63.6536V8.34636Z" fill="#F7A600"/>
</svg>
