<svg width="15" height="15" viewBox="0 0 15 15" fill="none" xmlns="http://www.w3.org/2000/svg">
<g clip-path="url(#clip0)">
<path d="M14.3985 2.85203C13.8739 3.08448 13.311 3.24212 12.7196 3.3125C13.3235 2.95089 13.7857 2.37733 14.0048 1.69599C13.4384 2.03086 12.8131 2.27402 12.1469 2.40584C11.6134 1.83672 10.8546 1.48224 10.0129 1.48224C8.39822 1.48224 7.08898 2.79148 7.08898 4.40532C7.08898 4.6342 7.11481 4.85775 7.16469 5.07152C4.73504 4.94949 2.58059 3.78543 1.13865 2.01661C0.886588 2.44769 0.743197 2.94998 0.743197 3.48617C0.743197 4.50061 1.25977 5.39571 2.04354 5.91938C1.56437 5.90336 1.1137 5.77154 0.719163 5.55244V5.58896C0.719163 7.00507 1.72737 8.18694 3.06421 8.45593C2.81928 8.52184 2.561 8.55836 2.29381 8.55836C2.105 8.55836 1.92242 8.53966 1.74339 8.50402C2.11567 9.66631 3.19514 10.5115 4.47411 10.5347C3.47391 11.3185 2.21276 11.7843 0.842967 11.7843C0.606956 11.7843 0.374484 11.77 0.145599 11.7442C1.4397 12.5752 2.97606 13.0597 4.6273 13.0597C10.0059 13.0597 12.9459 8.60468 12.9459 4.7411L12.9361 4.36258C13.5105 3.95286 14.0075 3.43808 14.3985 2.85203Z" fill="white"/>
</g>
<defs>
<clipPath id="clip0">
<rect width="14.2529" height="14.2529" fill="white" transform="translate(0.145599 0.144531)"/>
</clipPath>
</defs>
</svg>
