<svg width="17" height="16" viewBox="0 0 17 16" fill="none" xmlns="http://www.w3.org/2000/svg">
<g clip-path="url(#clip0)">
<path d="M16.1083 11.3813C16.0893 11.3415 16.0716 11.3084 16.0552 11.2819C15.7831 10.8047 15.2631 10.219 14.4955 9.52461L14.4793 9.50871L14.4712 9.50091L14.4629 9.49292H14.4547C14.1063 9.16957 13.8857 8.95216 13.7934 8.84085C13.6243 8.62881 13.5865 8.41418 13.6788 8.19671C13.7441 8.0324 13.9893 7.68541 14.4138 7.15525C14.6371 6.87429 14.8139 6.64911 14.9445 6.47945C15.8864 5.26024 16.2947 4.48115 16.1694 4.14187L16.1208 4.06258C16.0881 4.01485 16.0037 3.97118 15.8678 3.93136C15.7315 3.89162 15.5574 3.88505 15.345 3.91153L12.9933 3.92735C12.9552 3.91421 12.9008 3.91543 12.8299 3.93136C12.7591 3.94729 12.7237 3.95528 12.7237 3.95528L12.6828 3.97519L12.6503 3.99912C12.6231 4.01493 12.5931 4.04276 12.5605 4.08252C12.5279 4.12215 12.5007 4.16866 12.479 4.22165C12.223 4.86304 11.9319 5.45936 11.6051 6.01059C11.4037 6.33929 11.2187 6.62415 11.0498 6.86535C10.881 7.10646 10.7395 7.28411 10.6253 7.39798C10.5109 7.51197 10.4076 7.60328 10.3149 7.67226C10.2223 7.74127 10.1516 7.77043 10.1027 7.75976C10.0536 7.7491 10.0074 7.73851 9.96372 7.72793C9.88755 7.6802 9.82629 7.61528 9.7801 7.53313C9.73371 7.45098 9.70247 7.34758 9.68614 7.22301C9.6699 7.09836 9.66029 6.99114 9.65754 6.901C9.65499 6.81096 9.65617 6.68361 9.66169 6.5193C9.66735 6.35491 9.6699 6.24369 9.6699 6.18537C9.6699 5.98391 9.67393 5.76527 9.68202 5.5294C9.69026 5.29352 9.69692 5.10663 9.7025 4.96894C9.70805 4.83112 9.71063 4.68531 9.71063 4.53158C9.71063 4.37786 9.70102 4.2573 9.68202 4.1698C9.66326 4.08241 9.63446 3.99758 9.59651 3.91535C9.55832 3.83319 9.50244 3.76964 9.4291 3.72453C9.35563 3.67947 9.26427 3.64371 9.15556 3.61714C8.867 3.55357 8.49956 3.51917 8.05307 3.51383C7.04056 3.50324 6.38997 3.56691 6.10144 3.70473C5.98712 3.76296 5.88367 3.84252 5.79117 3.94317C5.69315 4.05983 5.67948 4.12349 5.75024 4.13396C6.07692 4.18161 6.30819 4.29559 6.44431 4.4758L6.49336 4.57129C6.53151 4.64019 6.56961 4.76217 6.60773 4.93706C6.6458 5.11195 6.67037 5.30541 6.68118 5.51734C6.70835 5.90435 6.70835 6.23564 6.68118 6.51123C6.65393 6.78693 6.62818 7.00156 6.60362 7.15528C6.57905 7.30901 6.54232 7.43357 6.49336 7.52895C6.44431 7.62436 6.41167 7.68268 6.39531 7.70384C6.37898 7.72501 6.36537 7.73835 6.35456 7.74358C6.2838 7.76998 6.21021 7.78343 6.13404 7.78343C6.05776 7.78343 5.96527 7.74628 5.85641 7.67204C5.74758 7.5978 5.63464 7.49581 5.51757 7.36593C5.40051 7.23601 5.26848 7.05447 5.12144 6.82127C4.97452 6.58806 4.82207 6.31244 4.6642 5.99441L4.53357 5.76377C4.45192 5.61539 4.34037 5.39934 4.19883 5.11582C4.05719 4.83218 3.932 4.55781 3.82318 4.29278C3.77967 4.18147 3.71432 4.09673 3.62723 4.03841L3.58636 4.01449C3.55919 3.99332 3.51557 3.97085 3.45574 3.9469C3.39582 3.92298 3.3333 3.90582 3.26791 3.89527L1.03047 3.91109C0.801829 3.91109 0.646696 3.96152 0.565011 4.06225L0.53232 4.1099C0.515989 4.13644 0.507751 4.17882 0.507751 4.23717C0.507751 4.29548 0.524083 4.36705 0.556774 4.4518C0.8834 5.19925 1.2386 5.92011 1.62237 6.61449C2.00614 7.30887 2.33963 7.86821 2.62264 8.29201C2.90571 8.71611 3.19424 9.11638 3.48823 9.49261C3.78222 9.86899 3.97682 10.1102 4.07204 10.2161C4.16736 10.3223 4.24224 10.4017 4.29667 10.4547L4.50085 10.6455C4.63151 10.7727 4.82336 10.9251 5.07651 11.1026C5.32972 11.2803 5.61004 11.4552 5.91762 11.6276C6.22525 11.7997 6.58314 11.9402 6.99148 12.0488C7.39976 12.1576 7.79715 12.2012 8.18369 12.1801H9.12278C9.31324 12.1641 9.45753 12.1058 9.55561 12.0052L9.5881 11.9653C9.60995 11.9337 9.6304 11.8845 9.64927 11.8184C9.66838 11.7521 9.67788 11.6791 9.67788 11.5998C9.6723 11.3719 9.69012 11.1665 9.73085 10.9836C9.77155 10.8008 9.81794 10.663 9.86982 10.5702C9.92167 10.4775 9.98019 10.3992 10.0453 10.3358C10.1106 10.2722 10.1571 10.2337 10.1844 10.2204C10.2115 10.2071 10.2331 10.198 10.2495 10.1926C10.3801 10.1502 10.5339 10.1913 10.711 10.3159C10.8879 10.4405 11.0539 10.5943 11.2092 10.7771C11.3643 10.9601 11.5507 11.1653 11.7685 11.3932C11.9863 11.6212 12.1768 11.7907 12.34 11.9021L12.5033 11.9975C12.6123 12.0612 12.7539 12.1195 12.9281 12.1725C13.102 12.2255 13.2544 12.2387 13.3853 12.2123L15.4757 12.1805C15.6824 12.1805 15.8433 12.1472 15.9574 12.081C16.0718 12.0148 16.1397 11.9418 16.1616 11.8624C16.1835 11.7829 16.1846 11.6927 16.1657 11.5919C16.1464 11.4914 16.1273 11.421 16.1083 11.3813Z" fill="white"/>
</g>
<defs>
<clipPath id="clip0">
<rect width="15.6837" height="15.271" fill="white" transform="translate(0.507751 0.233582)"/>
</clipPath>
</defs>
</svg>
